<svg xmlns="http://www.w3.org/2000/svg" viewBox="0 0 256 256" width="256" height="256">
  <defs>
    <linearGradient id="hull" x1="128" y1="10" x2="128" y2="246">
      <stop offset="0%" stop-color="#e6d6ff"/>
      <stop offset="40%" stop-color="#8a35ff"/>
      <stop offset="100%" stop-color="#1a0033"/>
    </linearGradient>
    <radialGradient id="core" cx="50%" cy="40%" r="58%">
      <stop offset="0%" stop-color="#ffffff"/>
      <stop offset="50%" stop-color="#e08aff"/>
      <stop offset="100%" stop-color="#3d007a"/>
    </radialGradient>
    <radialGradient id="ring" cx="50%" cy="50%" r="50%">
      <stop offset="0%" stop-color="#b86aff" stop-opacity="0.9"/>
      <stop offset="100%" stop-color="#2a0055" stop-opacity="0"/>
    </radialGradient>
  </defs>
  <ellipse cx="128" cy="242" rx="92" ry="12" fill="#000000" opacity="0.5"/>
  <path d="M128 10 L162 120 L128 116 L94 120 Z" fill="url(#hull)" stroke="#b86aff" stroke-width="3"/>
  <path d="M94 90 L26 172 L88 144 L94 120 Z" fill="url(#hull)" stroke="#a85aff" stroke-width="3"/>
  <path d="M162 90 L230 172 L168 144 L162 120 Z" fill="url(#hull)" stroke="#a85aff" stroke-width="3"/>
  <path d="M88 132 L16 194 L72 174 Z" fill="#5a17aa"/>
  <path d="M168 132 L240 194 L184 174 Z" fill="#5a17aa"/>
  <circle cx="128" cy="90" r="40" fill="url(#core)"/>
  <circle cx="128" cy="84" r="11" fill="#0f001f" opacity="0.85"/>
  <circle cx="128" cy="90" r="58" fill="none" stroke="#c988ff" stroke-width="4" stroke-dasharray="4 14"/>
  <ellipse cx="128" cy="122" rx="94" ry="18" fill="url(#ring)"/>
  <path d="M34 140 L96 140" stroke="#e6b4ff" stroke-width="6" stroke-linecap="round"/>
  <path d="M160 140 L222 140" stroke="#e6b4ff" stroke-width="6" stroke-linecap="round"/>
  <circle cx="34" cy="140" r="9" fill="#ff77e6"/>
  <circle cx="222" cy="140" r="9" fill="#ff77e6"/>
  <rect x="112" y="52" width="10" height="50" rx="5" fill="#a85aff" opacity="0.9"/>
  <rect x="134" y="52" width="10" height="50" rx="5" fill="#a85aff" opacity="0.9"/>
  <path d="M116 210 L140 210" stroke="#d6a8ff" stroke-width="6" stroke-linecap="round"/>
  <path d="M110 224 L146 224" stroke="#c998ff" stroke-width="6" stroke-linecap="round"/>
  <path d="M128 210 L128 240" stroke="#d6a8ff" stroke-width="4" stroke-linecap="round"/>
</svg>